<?xml version="1.0" encoding="iso-8859-1"?>
<!-- Generator: Adobe Illustrator 18.0.0, SVG Export Plug-In . SVG Version: 6.00 Build 0)  -->
<!DOCTYPE svg PUBLIC "-//W3C//DTD SVG 1.1//EN" "http://www.w3.org/Graphics/SVG/1.1/DTD/svg11.dtd">
<svg fill="#cccccc" version="1.1" id="Capa_1" xmlns="http://www.w3.org/2000/svg" xmlns:xlink="http://www.w3.org/1999/xlink" x="0px" y="0px"
	 viewBox="0 0 182.931 182.931" style="enable-background:new 0 0 182.931 182.931;" xml:space="preserve">
<path d="M173.93,80.132c4.971,0,9-4.029,9-9V9c0-4.971-4.029-9-9-9h-62.132c-4.971,0-9,4.029-9,9s4.029,9,9,9h40.404L91.465,78.737
	L30.728,18h40.404c4.971,0,9-4.029,9-9s-4.029-9-9-9H9C4.03,0,0,4.029,0,9v63.132c0,4.971,4.029,9,9,9s9-4.029,9-9V30.729
	l60.737,60.737L18,152.202v-40.404c0-4.971-4.029-9-9-9s-9,4.029-9,9v62.132c0,4.971,4.029,9,9,9h63.132c4.971,0,9-4.029,9-9
	s-4.029-9-9-9H30.728l60.737-60.737l60.737,60.737h-40.404c-4.971,0-9,4.029-9,9s4.029,9,9,9h62.132c4.971,0,9-4.029,9-9v-62.132
	c0-4.971-4.029-9-9-9s-9,4.029-9,9v40.404l-60.737-60.737l60.737-60.737v40.404C164.93,76.103,168.959,80.132,173.93,80.132z"/>
<g>
</g>
<g>
</g>
<g>
</g>
<g>
</g>
<g>
</g>
<g>
</g>
<g>
</g>
<g>
</g>
<g>
</g>
<g>
</g>
<g>
</g>
<g>
</g>
<g>
</g>
<g>
</g>
<g>
</g>
</svg>
